<svg width="80" height="52" viewBox="0 0 80 52" fill="none" xmlns="http://www.w3.org/2000/svg">
<g clip-path="url(#clip0_197_146)">
<path d="M9.54493 35.0621L17.6581 0H5.41308C2.42569 0 0 2.41602 0 5.38253V46.611C0 49.5824 2.42569 52.0008 5.41308 52.0008H17.6492C20.6358 52.0008 23.0744 49.5816 23.0744 46.611V5.38253C23.0744 2.41602 20.643 0 17.6581 0" fill="white"/>
<path d="M14.6204 9.53284L14.6334 9.7091C15.0065 9.92559 15.1959 10.1018 15.5723 10.3425C16.571 10.967 17.8013 12.0784 17.6459 15.9061C17.9259 16.7407 18.0498 18.3817 18.3079 18.908C18.8276 19.9333 19.1756 20.6005 19.3269 21.5687C19.3269 21.5687 19.4767 23.0753 19.6725 23.1839C20.7053 23.4157 20.4066 23.5171 20.558 23.6926C20.7183 23.8986 21.314 23.8889 21.314 24.4418C21.5212 24.7171 21.6741 25.0028 21.7907 25.3006V5.38166C21.7907 3.11131 19.934 1.26831 17.658 1.26831H13.7018C14.3372 1.49285 14.6957 1.75763 14.9053 2.17854C15.4161 2.222 16.0239 3.3608 15.0777 5.04204C15.497 5.31969 15.17 5.73417 14.8689 6.21544C14.7807 6.36996 14.6844 6.6436 14.4043 6.62589C14.045 7.37758 13.6112 8.10593 13.2834 8.1518C13.1838 8.27332 13.1118 8.59686 13.2615 8.74896C13.7431 8.96385 14.3299 9.25841 14.6204 9.53204" fill="#C8102E"/>
<path d="M21.7907 27.9991C21.2541 29.3536 19.9178 30.3105 18.3565 30.3105C16.3137 30.3105 14.6674 28.6687 14.6674 26.6438C14.6674 24.9135 15.8637 23.4624 17.4865 23.0753C17.0607 22.017 16.1631 20.302 15.8969 19.7386C15.6443 19.1801 15.0365 15.6921 14.9054 15.0015C14.8754 14.851 13.3142 15.9029 13.3109 15.9681C13.2195 16.0558 12.1389 18.8622 12.0936 19.0135C12.0718 19.1093 12.0693 19.4843 12.0693 19.4843C12.0693 19.4843 12.6003 19.5495 12.9062 20.471C13.2089 21.3917 14.1316 24.7517 14.1316 24.7517C14.1316 24.7517 13.8815 25.0085 13.871 24.9932C15.0365 28.8723 14.6294 30.5423 15.1522 31.6795C15.8094 33.2827 15.9867 33.0726 16.5508 34.4198C16.9555 35.4017 17.4063 39.264 17.5569 39.4354C18.1858 40.2281 18.5249 40.8486 18.5249 41.2953C18.5249 41.742 17.9923 43.0755 18.1866 43.8505C18.3047 44.3061 18.3663 45.3282 18.5791 45.5221C18.5791 45.5221 18.775 45.906 18.6787 46.0758C18.6512 46.1346 18.5953 46.2239 18.6204 46.2939C18.9676 47.5124 20.087 49.5896 18.2732 50.6769H18.312C20.2918 50.3719 21.7915 48.6834 21.7915 46.6094V27.9983L21.7907 27.9991Z" fill="#C8102E"/>
<path d="M17.1312 45.8207C16.4659 45.2308 16.9103 44.9813 16.8836 44.7487C16.4449 42.9476 15.0066 41.8587 15.7505 41.2639C15.5667 40.6692 15.1928 39.9223 15.2066 39.9239C12.9646 38.6435 11.0553 36.5647 10.7315 36.2597C10.3382 35.8347 9.66883 35.4082 9.54257 35.0629C9.00352 34.5704 6.36092 30.8433 5.7458 29.4711L4.67338 29.3206C4.18533 27.3384 2.55687 25.6781 2.5164 23.691C2.50102 22.9402 2.85877 21.3305 2.99231 21.0094C3.12262 20.6843 3.74665 20.1491 3.74665 20.1491V19.6171C1.40675 19.6831 2.08015 19.4457 1.67627 18.5411C1.39299 17.915 1.59615 17.7773 1.69813 17.3427C2.01216 16.0607 3.05464 14.0833 3.48603 13.1851C3.61796 12.732 4.06878 11.6391 4.06878 11.6391C5.81217 8.10842 6.46371 8.36756 8.5349 8.16878L8.63688 8.02311C10.7121 7.93377 10.3722 7.77845 10.6652 5.79058C10.3625 5.91935 10.2726 5.16847 10.2726 5.16847C10.1075 4.03691 10.5875 4.2518 10.8149 4.22926C10.8635 2.36936 11.0553 1.78427 12.4045 1.27161H5.41477C3.12748 1.27161 1.27563 3.11461 1.27563 5.38737V46.6135C1.27563 48.8886 3.12829 50.7316 5.41477 50.7316H17.6573C16.2555 49.9784 17.0827 48.545 17.1304 45.8231L17.1312 45.8207Z" fill="#1D428A"/>
<path d="M7.73121 48.1377V40.674H9.18727C10.0298 40.674 10.5503 41.1238 10.5503 42.1693V43.2775C10.5503 43.9559 10.3422 44.302 10.0501 44.4694C10.3422 44.6682 10.5503 45.003 10.5503 45.5672V46.6544C10.5503 47.679 9.99826 48.1385 9.18727 48.1385H7.73121V48.1377ZM8.72998 44.8968V47.1969H9.11443C9.4576 47.1969 9.55149 47.019 9.55149 46.6641V45.399C9.55149 45.0328 9.43737 44.8968 9.10391 44.8968H8.72917H8.72998ZM8.72998 41.614V44.0815H9.10472C9.45841 44.0815 9.5523 43.9551 9.5523 43.5487V42.117C9.5523 41.7717 9.44789 41.6148 9.11524 41.6148H8.73079L8.72998 41.614ZM12.9015 46.6214H11.9966L11.8712 48.1377H10.8627L11.7676 40.674H13.2034L14.0767 48.1377H13.0261L12.9015 46.6214ZM12.4539 41.5101H12.4021C12.3398 42.4091 12.2151 43.9873 12.173 44.4895L12.0589 45.7748H12.8392L12.7242 44.4895C12.6821 43.9777 12.5373 42.4196 12.4539 41.5101ZM4.75596 48.1377H3.88184V40.674H5.26586L6.37875 46.7897C6.28486 45.3265 6.15941 43.5592 6.15941 42.0542V40.674H7.03353V48.1377H5.76444L4.65155 42.1572C4.72439 43.5374 4.75515 44.636 4.75515 45.7853V48.1369L4.75596 48.1377Z" fill="white"/>
<path d="M36.077 16.3592V16.6554C36.077 17.2139 35.9985 17.7145 35.8423 18.1579C35.6861 18.6014 35.4643 18.9788 35.1786 19.2919C34.8929 19.605 34.5546 19.844 34.1644 20.009C33.7743 20.174 33.3437 20.2577 32.8727 20.2577C32.4016 20.2577 31.9654 20.1748 31.5736 20.009C31.1819 19.8432 30.842 19.6042 30.5546 19.2919C30.2673 18.9796 30.0447 18.6014 29.8885 18.1579C29.7323 17.7145 29.6538 17.2139 29.6538 16.6554V16.3592C29.6538 15.8007 29.7323 15.2993 29.8885 14.8542C30.0447 14.4092 30.2649 14.0309 30.549 13.7178C30.8331 13.4048 31.1714 13.1657 31.5631 13.0008C31.9549 12.8358 32.3879 12.7521 32.8622 12.7521C33.3365 12.7521 33.7646 12.835 34.1563 13.0008C34.5481 13.1665 34.8872 13.4056 35.1729 13.7178C35.4586 14.0301 35.6804 14.4092 35.839 14.8542C35.9977 15.2993 36.0762 15.8007 36.0762 16.3592H36.077ZM34.281 16.6554V16.3495C34.281 15.9882 34.2502 15.6695 34.1879 15.3942C34.1256 15.119 34.0341 14.8872 33.9127 14.6997C33.7913 14.5122 33.6432 14.3713 33.466 14.2756C33.2887 14.1798 33.088 14.1323 32.863 14.1323C32.638 14.1323 32.4227 14.1798 32.2478 14.2756C32.073 14.3713 31.9265 14.5122 31.8092 14.6997C31.6918 14.8872 31.6028 15.1182 31.5445 15.3942C31.4862 15.6703 31.4563 15.989 31.4563 16.3495V16.6554C31.4563 17.0135 31.4862 17.3298 31.5445 17.6058C31.6028 17.8819 31.6926 18.1153 31.8116 18.3052C31.9306 18.4952 32.0787 18.6392 32.2551 18.7366C32.4316 18.834 32.638 18.8823 32.8735 18.8823C33.109 18.8823 33.2992 18.834 33.474 18.7366C33.6489 18.6392 33.7962 18.496 33.9152 18.3052C34.0341 18.1145 34.1256 17.8811 34.1879 17.6058C34.2502 17.3306 34.281 17.0135 34.281 16.6554Z" fill="#1D428A"/>
<path d="M40.0574 14.7295V15.9029H36.501V14.7295H40.0574ZM38.9979 20.1563H37.2877V14.2877C37.2877 13.866 37.3735 13.5118 37.5451 13.2245C37.7167 12.9372 37.9587 12.7183 38.2719 12.5702C38.5851 12.4221 38.955 12.3473 39.3815 12.3473C39.5296 12.3473 39.6689 12.3569 39.8 12.3771C39.9311 12.3972 40.059 12.4221 40.1836 12.4519L40.1885 13.6961C40.1278 13.6792 40.0655 13.668 40.0015 13.6607C39.9376 13.6535 39.8583 13.6511 39.7644 13.6511C39.6001 13.6511 39.46 13.6752 39.3459 13.7235C39.2318 13.7718 39.1452 13.8442 39.0861 13.9392C39.027 14.0342 38.9979 14.1509 38.9979 14.2877V20.1563Z" fill="#1D428A"/>
<path d="M43.8056 14.7295V15.9029H40.2493V14.7295H43.8056ZM42.7462 20.1563H41.036V14.2877C41.036 13.866 41.1218 13.5118 41.2934 13.2245C41.4649 12.9372 41.7069 12.7183 42.0202 12.5702C42.3334 12.4221 42.7033 12.3473 43.1298 12.3473C43.2779 12.3473 43.4171 12.3569 43.5483 12.3771C43.6794 12.3972 43.8073 12.4221 43.9319 12.4519L43.9368 13.6961C43.8761 13.6792 43.8137 13.668 43.7498 13.6607C43.6859 13.6535 43.6065 13.6511 43.5127 13.6511C43.3484 13.6511 43.2083 13.6752 43.0942 13.7235C42.9801 13.7718 42.8935 13.8442 42.8344 13.9392C42.7753 14.0342 42.7462 14.1509 42.7462 14.2877V20.1563Z" fill="#1D428A"/>
<path d="M44.4006 13.33C44.4006 13.0893 44.488 12.8921 44.6629 12.7384C44.8377 12.5847 45.0643 12.5074 45.3436 12.5074C45.6228 12.5074 45.8494 12.5847 46.0242 12.7384C46.1991 12.8921 46.2865 13.0893 46.2865 13.33C46.2865 13.5706 46.1991 13.7678 46.0242 13.9215C45.8494 14.0752 45.6228 14.1525 45.3436 14.1525C45.0643 14.1525 44.8377 14.0752 44.6629 13.9215C44.488 13.7678 44.4006 13.5706 44.4006 13.33ZM46.2063 14.7295V20.1571H44.501V14.7295H46.2063Z" fill="#1D428A"/>
<path d="M49.5561 18.9531C49.714 18.9531 49.8491 18.9233 49.9624 18.8654C50.0758 18.8074 50.1607 18.7229 50.2198 18.6143C50.2789 18.5056 50.3064 18.3745 50.3032 18.2207H51.9025C51.9057 18.6288 51.8062 18.9853 51.6022 19.2919C51.3983 19.5986 51.1231 19.8352 50.7751 20.0042C50.427 20.1732 50.0345 20.2577 49.5974 20.2577C49.1603 20.2577 48.7969 20.1885 48.4772 20.0493C48.1575 19.91 47.8913 19.7161 47.6776 19.4674C47.4639 19.2187 47.3045 18.9266 47.1984 18.5918C47.0924 18.257 47.0398 17.8948 47.0398 17.5037V17.3886C47.0398 16.9974 47.0924 16.6337 47.1984 16.2973C47.3045 15.9609 47.4639 15.6687 47.6776 15.4192C47.8913 15.1697 48.1567 14.9758 48.4748 14.8374C48.7929 14.6989 49.1636 14.6289 49.5869 14.6289C50.0409 14.6289 50.4416 14.7142 50.7896 14.8848C51.1376 15.0555 51.4112 15.3033 51.6095 15.6269C51.8078 15.9504 51.9057 16.3439 51.9017 16.8059H50.3024C50.3056 16.6425 50.2805 16.4952 50.2271 16.3649C50.1737 16.2345 50.0903 16.1299 49.977 16.051C49.8637 15.9721 49.7204 15.9335 49.5456 15.9335C49.3708 15.9335 49.23 15.9721 49.1215 16.0486C49.013 16.125 48.9321 16.2313 48.8771 16.3673C48.822 16.5033 48.7848 16.6578 48.7662 16.8317C48.7476 17.0055 48.7387 17.1914 48.7387 17.3886V17.5037C48.7387 17.7041 48.7484 17.8924 48.7662 18.0678C48.784 18.2433 48.822 18.397 48.8795 18.529C48.937 18.661 49.0187 18.7648 49.1264 18.8396C49.234 18.9145 49.3765 18.9523 49.5553 18.9523L49.5561 18.9531Z" fill="#1D428A"/>
<path d="M52.6133 13.33C52.6133 13.0893 52.7007 12.8921 52.8755 12.7384C53.0503 12.5847 53.277 12.5074 53.5562 12.5074C53.8354 12.5074 54.0621 12.5847 54.2369 12.7384C54.4117 12.8921 54.4991 13.0893 54.4991 13.33C54.4991 13.5706 54.4117 13.7678 54.2369 13.9215C54.0621 14.0752 53.8354 14.1525 53.5562 14.1525C53.277 14.1525 53.0503 14.0752 52.8755 13.9215C52.7007 13.7678 52.6133 13.5706 52.6133 13.33ZM54.419 14.7295V20.1571H52.7136V14.7295H54.419Z" fill="#1D428A"/>
<path d="M58.5055 16.8414L58.5152 17.7444H57.7633C57.6055 17.7444 57.4711 17.7661 57.3627 17.8095C57.2542 17.853 57.166 17.9126 57.1004 17.9874C57.0349 18.0623 56.9879 18.1476 56.9588 18.2409C56.9297 18.3343 56.9159 18.4333 56.9159 18.5371C56.9159 18.6409 56.9402 18.727 56.9887 18.8051C57.0373 18.8832 57.1037 18.9451 57.1879 18.9878C57.272 19.0304 57.3659 19.053 57.4703 19.053C57.6589 19.053 57.8192 19.0167 57.9519 18.9451C58.0846 18.8735 58.1866 18.785 58.257 18.6819C58.3274 18.5789 58.3631 18.4816 58.3631 18.3914L58.7362 19.0835C58.669 19.2171 58.5921 19.3524 58.5063 19.49C58.4205 19.6276 58.3145 19.7531 58.1882 19.869C58.062 19.9849 57.9082 20.0783 57.7269 20.1499C57.5456 20.2215 57.3254 20.2578 57.0664 20.2578C56.7306 20.2578 56.4214 20.1893 56.1405 20.0517C55.8597 19.9141 55.6355 19.7234 55.4671 19.4771C55.2988 19.2308 55.2146 18.9475 55.2146 18.6272C55.2146 18.3463 55.2656 18.0952 55.3684 17.8747C55.4712 17.6542 55.6266 17.4667 55.8354 17.313C56.0442 17.1593 56.3097 17.0418 56.6326 16.9621C56.9556 16.8824 57.336 16.8414 57.773 16.8414H58.5047H58.5055ZM58.2983 18.7922V16.5549C58.2983 16.4011 58.2765 16.2691 58.2327 16.1589C58.189 16.0486 58.1202 15.9625 58.0255 15.9005C57.9309 15.8386 57.8054 15.808 57.6476 15.808C57.5197 15.808 57.4104 15.8297 57.3198 15.8732C57.2291 15.9166 57.1603 15.9818 57.1126 16.0688C57.0648 16.1557 57.0422 16.2659 57.0422 16.3995H55.3425C55.3425 16.1484 55.3983 15.9158 55.5116 15.7002C55.625 15.4845 55.786 15.2961 55.9956 15.136C56.2053 14.9758 56.4578 14.8511 56.7524 14.7626C57.047 14.674 57.3756 14.6298 57.7382 14.6298C58.172 14.6298 58.5597 14.7014 58.9013 14.8454C59.2428 14.9895 59.5124 15.2044 59.7107 15.4901C59.909 15.7758 60.0085 16.1347 60.0085 16.5661V18.7882C60.0085 19.1423 60.0287 19.4111 60.0692 19.593C60.1097 19.7749 60.1671 19.935 60.2408 20.0718V20.1572H58.5355C58.4545 19.9898 58.3946 19.7853 58.3566 19.5423C58.3185 19.2992 58.2983 19.0497 58.2983 18.7922Z" fill="#1D428A"/>
<path d="M62.7473 12.4519V20.1563H61.042V12.4519H62.7473Z" fill="#1D428A"/>
<path d="M32.7934 26.8507H30.9674V25.4914H32.7934C33.0427 25.4914 33.2442 25.4495 33.3988 25.3658C33.5534 25.2821 33.6667 25.1662 33.7395 25.0173C33.8124 24.8684 33.848 24.7002 33.848 24.5135C33.848 24.3131 33.8116 24.1272 33.7395 23.9566C33.6675 23.786 33.5534 23.6484 33.3988 23.5429C33.2442 23.4375 33.0427 23.3852 32.7934 23.3852H31.6327V29.3295H29.8618V22.0259H32.7926C33.381 22.0259 33.8876 22.1329 34.3134 22.347C34.7391 22.5611 35.0661 22.854 35.2943 23.2275C35.5226 23.6009 35.6375 24.0258 35.6375 24.5039C35.6375 24.9819 35.5234 25.3867 35.2943 25.7376C35.0653 26.0885 34.7391 26.3622 34.3134 26.5577C33.8876 26.7533 33.381 26.8515 32.7926 26.8515L32.7934 26.8507Z" fill="#1D428A"/>
<path d="M39.4975 26.0137L39.5072 26.9167H38.7553C38.5974 26.9167 38.4631 26.9384 38.3546 26.9819C38.2462 27.0254 38.1579 27.0849 38.0924 27.1598C38.0268 27.2346 37.9799 27.3199 37.9507 27.4133C37.9216 27.5066 37.9078 27.6056 37.9078 27.7094C37.9078 27.8133 37.9321 27.8994 37.9807 27.9774C38.0293 28.0555 38.0956 28.1175 38.1798 28.1601C38.264 28.2028 38.3579 28.2253 38.4623 28.2253C38.6508 28.2253 38.8111 28.1891 38.9438 28.1175C39.0766 28.0459 39.1786 27.9573 39.249 27.8543C39.3194 27.7513 39.355 27.6539 39.355 27.5638L39.7281 28.2559C39.6609 28.3895 39.5841 28.5247 39.4983 28.6623C39.4125 28.8 39.3064 28.9255 39.1802 29.0414C39.0539 29.1573 38.9001 29.2506 38.7188 29.3223C38.5375 29.3939 38.3174 29.4301 38.0584 29.4301C37.7225 29.4301 37.4133 29.3617 37.1325 29.2241C36.8516 29.0865 36.6274 28.8957 36.4591 28.6495C36.2907 28.4032 36.2065 28.1199 36.2065 27.7996C36.2065 27.5187 36.2575 27.2676 36.3603 27.0471C36.4631 26.8266 36.6185 26.6391 36.8273 26.4853C37.0362 26.3316 37.3016 26.2141 37.6246 26.1344C37.9475 26.0548 38.3279 26.0137 38.765 26.0137H39.4966H39.4975ZM39.2903 27.9646V25.7272C39.2903 25.5735 39.2684 25.4415 39.2247 25.3313C39.181 25.221 39.1122 25.1349 39.0175 25.0729C38.9228 25.0109 38.7973 24.9804 38.6395 24.9804C38.5116 24.9804 38.4024 25.0021 38.3117 25.0455C38.2211 25.089 38.1523 25.1542 38.1045 25.2411C38.0568 25.328 38.0341 25.4383 38.0341 25.5719H36.3344C36.3344 25.3208 36.3903 25.0882 36.5036 24.8725C36.6169 24.6568 36.778 24.4685 36.9876 24.3083C37.1972 24.1482 37.4497 24.0234 37.7444 23.9349C38.039 23.8464 38.3676 23.8021 38.7302 23.8021C39.164 23.8021 39.5517 23.8738 39.8932 24.0178C40.2348 24.1619 40.5043 24.3768 40.7026 24.6625C40.9009 24.9482 41.0005 25.3071 41.0005 25.7385V27.9605C41.0005 28.3147 41.0207 28.5835 41.0612 28.7654C41.1016 28.9472 41.1591 29.1074 41.2327 29.2442V29.3295H39.5274C39.4465 29.1621 39.3866 28.9577 39.3485 28.7146C39.3105 28.4716 39.2903 28.2221 39.2903 27.9646Z" fill="#1D428A"/>
<path d="M43.6592 25.2459V29.3287H41.9595V23.9011H43.5483L43.6592 25.2451V25.2459ZM45.273 23.8616L45.2431 25.4318C45.1759 25.4254 45.0853 25.4165 44.9703 25.4069C44.8554 25.3972 44.7599 25.3916 44.683 25.3916C44.4847 25.3916 44.3139 25.4141 44.1707 25.4592C44.0274 25.5042 43.9101 25.571 43.8178 25.6596C43.7255 25.7481 43.6583 25.8592 43.6163 25.9928C43.5742 26.1263 43.5547 26.2817 43.558 26.4595L43.2504 26.2591C43.2504 25.8946 43.2868 25.563 43.3589 25.2636C43.4309 24.9642 43.5345 24.7051 43.6689 24.4862C43.8032 24.2673 43.9667 24.0982 44.1585 23.9791C44.3504 23.86 44.5657 23.8013 44.8044 23.8013C44.8886 23.8013 44.972 23.8061 45.0545 23.8166C45.1371 23.827 45.2099 23.8415 45.2739 23.8616H45.273Z" fill="#1D428A"/>
<path d="M48.9863 23.9019V25.0753H45.697V23.9019H48.9863ZM46.3882 22.5522H48.0879V27.5581C48.0879 27.7022 48.1049 27.8132 48.1381 27.8913C48.1713 27.9694 48.2295 28.0249 48.3121 28.0571C48.3947 28.0893 48.5047 28.1046 48.6423 28.1046C48.7403 28.1046 48.8204 28.1022 48.8843 28.0973C48.9483 28.0925 49.009 28.0845 49.0656 28.0748V29.2836C48.9208 29.3303 48.7694 29.3665 48.6116 29.3915C48.4537 29.4164 48.2854 29.4293 48.1073 29.4293C47.7439 29.4293 47.4339 29.3722 47.1766 29.2587C46.9192 29.1452 46.7233 28.9657 46.589 28.7219C46.4546 28.478 46.3874 28.1601 46.3874 27.769V22.5522H46.3882Z" fill="#1D428A"/>
<path d="M51.332 25.0599V29.3286H49.6323V23.901H51.2268L51.3328 25.0599H51.332ZM51.1297 26.4297L50.7315 26.4394C50.7315 26.0249 50.7816 25.6547 50.8828 25.3279C50.984 25.0012 51.1264 24.7251 51.3118 24.4974C51.4963 24.2696 51.7181 24.0966 51.9755 23.9783C52.2328 23.86 52.5194 23.8004 52.8358 23.8004C53.0883 23.8004 53.319 23.8374 53.5295 23.9107C53.7399 23.9839 53.9212 24.103 54.0742 24.2672C54.2271 24.4314 54.3445 24.6479 54.4271 24.9167C54.5096 25.1855 54.5509 25.5179 54.5509 25.9122V29.3278H52.8407V25.9066C52.8407 25.6893 52.8107 25.5227 52.75 25.4076C52.6893 25.2925 52.6019 25.2128 52.4878 25.1694C52.3737 25.1259 52.2337 25.1042 52.0693 25.1042C51.8945 25.1042 51.7464 25.1372 51.6258 25.2048C51.5052 25.2724 51.4081 25.365 51.3361 25.4833C51.264 25.6016 51.2114 25.7416 51.1798 25.9018C51.1483 26.0619 51.1321 26.2382 51.1321 26.4281L51.1297 26.4297Z" fill="#1D428A"/>
<path d="M58.1373 29.4292C57.6937 29.4292 57.2963 29.36 56.9467 29.2208C56.597 29.0815 56.3016 28.8908 56.0612 28.6461C55.8208 28.4015 55.6371 28.1214 55.5117 27.8035C55.3862 27.4856 55.3223 27.15 55.3223 26.7951V26.6044C55.3223 26.206 55.3781 25.8374 55.489 25.4985C55.5999 25.1597 55.765 24.8619 55.9835 24.6084C56.2021 24.3549 56.4764 24.1561 56.8058 24.0137C57.1353 23.8712 57.5189 23.8004 57.956 23.8004C58.3428 23.8004 58.6893 23.8624 58.9952 23.9863C59.3011 24.1103 59.561 24.2873 59.7746 24.5183C59.9883 24.7493 60.151 25.0285 60.2643 25.3561C60.3776 25.6837 60.4335 26.0515 60.4335 26.4595V27.1468H55.9738V26.0885H58.7734V25.9581C58.7767 25.7778 58.7459 25.6241 58.6804 25.4969C58.6148 25.3698 58.5193 25.2732 58.3955 25.2064C58.2716 25.1396 58.1195 25.1058 57.9414 25.1058C57.7633 25.1058 57.6039 25.146 57.4849 25.2265C57.3659 25.307 57.2729 25.4165 57.2073 25.5549C57.1417 25.6933 57.0956 25.8535 57.0689 26.0337C57.0422 26.214 57.0284 26.4048 57.0284 26.606V26.7967C57.0284 26.9971 57.0559 27.1798 57.1118 27.3432C57.1676 27.5065 57.2478 27.6466 57.3538 27.7617C57.4598 27.8767 57.5877 27.9669 57.7374 28.0297C57.8872 28.0924 58.0579 28.1246 58.2498 28.1246C58.4821 28.1246 58.7103 28.0812 58.9361 27.9942C59.1619 27.9073 59.3546 27.7633 59.5164 27.5629L60.2886 28.4755C60.1777 28.6325 60.0207 28.7846 59.8167 28.9318C59.6127 29.0791 59.3699 29.1982 59.0875 29.2908C58.805 29.3833 58.4893 29.4284 58.1389 29.4284L58.1373 29.4292Z" fill="#1D428A"/>
<path d="M62.8388 25.2459V29.3287H61.1392V23.9011H62.728L62.8388 25.2451V25.2459ZM64.4527 23.8616L64.4228 25.4318C64.3556 25.4254 64.265 25.4165 64.15 25.4069C64.0351 25.3972 63.9396 25.3916 63.8627 25.3916C63.6644 25.3916 63.4936 25.4141 63.3504 25.4592C63.2071 25.5042 63.0897 25.571 62.9975 25.6596C62.9052 25.7481 62.838 25.8592 62.7959 25.9928C62.7539 26.1263 62.7344 26.2817 62.7377 26.4595L62.4301 26.2591C62.4301 25.8946 62.4665 25.563 62.5386 25.2636C62.6106 24.9642 62.7142 24.7051 62.8486 24.4862C62.9829 24.2673 63.1464 24.0982 63.3382 23.9791C63.53 23.86 63.7453 23.8013 63.9841 23.8013C64.0683 23.8013 64.1516 23.8061 64.2342 23.8166C64.3168 23.827 64.3896 23.8415 64.4535 23.8616H64.4527Z" fill="#1D428A"/>
<path d="M29.5696 35.8427V35.7373C29.5696 35.3389 29.627 34.9727 29.7412 34.6363C29.8553 34.2999 30.0236 34.0086 30.2454 33.7607C30.4672 33.5128 30.7416 33.3196 31.0677 33.1812C31.3939 33.0428 31.7711 32.9728 32.1976 32.9728C32.6242 32.9728 33.007 33.042 33.3348 33.1812C33.6626 33.3205 33.9378 33.5128 34.1595 33.7607C34.3813 34.0086 34.5496 34.2999 34.6638 34.6363C34.7779 34.9727 34.8354 35.3389 34.8354 35.7373V35.8427C34.8354 36.2371 34.7779 36.6024 34.6638 36.9389C34.5496 37.2753 34.3813 37.5674 34.1595 37.8169C33.9378 38.0664 33.6634 38.2587 33.3372 38.3964C33.011 38.534 32.6339 38.6024 32.2073 38.6024C31.7808 38.6024 31.402 38.534 31.0726 38.3964C30.7432 38.2587 30.4672 38.0664 30.2454 37.8169C30.0236 37.5674 29.8553 37.2753 29.7412 36.9389C29.627 36.6024 29.5696 36.2371 29.5696 35.8427ZM31.2693 35.7373V35.8427C31.2693 36.0463 31.2846 36.2371 31.3146 36.4149C31.3445 36.5928 31.3955 36.7465 31.4659 36.8793C31.5364 37.0121 31.6327 37.1143 31.7533 37.1875C31.8739 37.2608 32.026 37.2978 32.2073 37.2978C32.3886 37.2978 32.5343 37.2608 32.6541 37.1875C32.7739 37.1143 32.8686 37.0113 32.939 36.8793C33.0094 36.7473 33.0604 36.5928 33.0904 36.4149C33.1203 36.2371 33.1357 36.0471 33.1357 35.8427V35.7373C33.1357 35.5401 33.1203 35.3534 33.0904 35.1779C33.0604 35.0025 33.0094 34.8472 32.939 34.7112C32.8686 34.5751 32.7723 34.4697 32.6517 34.3925C32.5311 34.3152 32.3789 34.2774 32.1976 34.2774C32.0163 34.2774 31.8706 34.316 31.7508 34.3925C31.6311 34.4689 31.5364 34.5751 31.4659 34.7112C31.3955 34.8472 31.3445 35.0017 31.3146 35.1779C31.2846 35.3542 31.2693 35.5401 31.2693 35.7373Z" fill="#1D428A"/>
<path d="M38.7309 33.0734V34.2468H35.1746V33.0734H38.7309ZM37.6715 38.501H35.9613V32.6324C35.9613 32.2107 36.0471 31.8566 36.2187 31.5693C36.3902 31.2819 36.6322 31.063 36.9455 30.9149C37.2587 30.7669 37.6286 30.692 38.0551 30.692C38.2032 30.692 38.3424 30.7017 38.4736 30.7218C38.6047 30.7419 38.7326 30.7669 38.8572 30.7966L38.8621 32.0409C38.8014 32.024 38.739 32.0127 38.6751 32.0055C38.6112 31.9982 38.5318 31.9958 38.438 31.9958C38.2736 31.9958 38.1336 32.0199 38.0195 32.0682C37.9054 32.1165 37.8188 32.189 37.7597 32.2839C37.7006 32.3789 37.6715 32.4956 37.6715 32.6324V38.501Z" fill="#1D428A"/>
<path d="M44.7842 33.0735V34.2469H41.4949V33.0735H44.7842ZM42.1861 31.7246H43.8858V36.7305C43.8858 36.8746 43.9028 36.9856 43.9359 37.0637C43.9691 37.1417 44.0274 37.1973 44.11 37.2295C44.1925 37.2617 44.3026 37.277 44.4402 37.277C44.5381 37.277 44.6182 37.2745 44.6822 37.2697C44.7461 37.2649 44.8068 37.2568 44.8635 37.2472V38.456C44.7186 38.5027 44.5673 38.5389 44.4094 38.5638C44.2516 38.5888 44.0832 38.6017 43.9052 38.6017C43.5418 38.6017 43.2318 38.5445 42.9744 38.431C42.717 38.3176 42.5212 38.1381 42.3868 37.8942C42.2524 37.6504 42.1853 37.3325 42.1853 36.9413V31.7246H42.1861Z" fill="#1D428A"/>
<path d="M47.125 30.7966V38.501H45.4253V30.7966H47.125ZM46.9226 35.6021L46.5244 35.6118C46.5244 35.2303 46.5714 34.8794 46.6661 34.5583C46.7608 34.2372 46.8951 33.9579 47.0699 33.7205C47.2448 33.4831 47.4552 33.2988 47.7004 33.1684C47.9457 33.038 48.2184 32.9728 48.5179 32.9728C48.7874 32.9728 49.0335 33.0115 49.2569 33.0879C49.4803 33.1644 49.6737 33.2883 49.8372 33.4589C50.0007 33.6295 50.1261 33.8517 50.2152 34.1261C50.3042 34.4005 50.3487 34.7345 50.3487 35.1297V38.5002H48.6385V35.1192C48.6385 34.8987 48.6077 34.7273 48.5454 34.605C48.4831 34.4826 48.3949 34.3973 48.2808 34.349C48.1666 34.3007 48.0266 34.2766 47.8623 34.2766C47.664 34.2766 47.5021 34.3096 47.3783 34.3772C47.2545 34.4448 47.159 34.5374 47.0934 34.6557C47.0278 34.774 46.9833 34.914 46.9599 35.0742C46.9364 35.2343 46.9243 35.4106 46.9243 35.6005L46.9226 35.6021Z" fill="#1D428A"/>
<path d="M53.9349 38.6016C53.4913 38.6016 53.0939 38.5324 52.7443 38.3931C52.3946 38.2539 52.0992 38.0632 51.8588 37.8185C51.6184 37.5746 51.4347 37.2938 51.3093 36.9759C51.1838 36.658 51.1199 36.3224 51.1199 35.9675V35.7767C51.1199 35.3783 51.1757 35.0097 51.2866 34.6709C51.3975 34.3321 51.5626 34.0343 51.7811 33.7808C51.9997 33.5273 52.274 33.3285 52.6035 33.1861C52.9329 33.0436 53.3165 32.9728 53.7536 32.9728C54.1405 32.9728 54.4869 33.0347 54.7928 33.1587C55.0987 33.2826 55.3586 33.4597 55.5722 33.6907C55.7859 33.9216 55.9486 34.2009 56.0619 34.5285C56.1752 34.856 56.2311 35.2238 56.2311 35.6318V36.3192H51.7714V35.2608H54.571V35.1305C54.5743 34.9502 54.5435 34.7965 54.478 34.6693C54.4124 34.5421 54.3169 34.4456 54.1931 34.3788C54.0692 34.312 53.9171 34.2782 53.739 34.2782C53.5609 34.2782 53.4015 34.3184 53.2825 34.3989C53.1635 34.4794 53.0705 34.5888 53.0049 34.7273C52.9393 34.8657 52.8932 35.0258 52.8665 35.2061C52.8398 35.3864 52.826 35.5771 52.826 35.7783V35.9691C52.826 36.1695 52.8536 36.3521 52.9094 36.5155C52.9652 36.6789 53.0454 36.8189 53.1514 36.934C53.2574 37.0491 53.3853 37.1392 53.535 37.202C53.6848 37.2648 53.8556 37.297 54.0474 37.297C54.2797 37.297 54.5079 37.2535 54.7337 37.1666C54.9595 37.0797 55.1522 36.9356 55.314 36.7352L56.0862 37.6479C55.9753 37.8048 55.8183 37.9569 55.6143 38.1042C55.4104 38.2515 55.1675 38.3706 54.8851 38.4632C54.6026 38.5557 54.287 38.6008 53.9365 38.6008L53.9349 38.6016Z" fill="#1D428A"/>
<path d="M65.7089 31.1974V38.501H63.9437L61.3456 33.9563V38.501H59.5747V31.1974H61.3456L63.9437 35.7421V31.1974H65.7089Z" fill="#1D428A"/>
<path d="M69.8254 35.396H67.9339L67.9242 34.242H69.4579C69.7339 34.242 69.9541 34.2114 70.1184 34.1494C70.2827 34.0874 70.4033 33.9965 70.4794 33.8758C70.5555 33.7551 70.5927 33.6046 70.5927 33.4243C70.5927 33.2166 70.5538 33.05 70.4769 32.9229C70.4001 32.7957 70.2778 32.7032 70.1111 32.6444C69.9444 32.5857 69.7299 32.5567 69.4677 32.5567H68.6V38.501H66.8291V31.1974H69.4677C69.9217 31.1974 70.3272 31.2384 70.6833 31.3205C71.0395 31.4026 71.3438 31.5266 71.5939 31.694C71.844 31.8613 72.035 32.0706 72.1661 32.3233C72.2972 32.576 72.3628 32.8722 72.3628 33.2134C72.3628 33.5112 72.2988 33.7905 72.171 34.0512C72.0431 34.312 71.8302 34.5236 71.5332 34.6854C71.2361 34.8472 70.8298 34.9317 70.3151 34.9389L69.8254 35.3952V35.396ZM69.755 38.501H67.5049L68.1103 37.1465H69.755C69.997 37.1465 70.1912 37.1087 70.3377 37.0338C70.4842 36.959 70.5903 36.8584 70.6558 36.7328C70.7214 36.6073 70.7546 36.468 70.7546 36.3143C70.7546 36.1268 70.7238 35.965 70.6615 35.8274C70.5992 35.6898 70.5004 35.5844 70.3661 35.5087C70.2317 35.4331 70.0512 35.396 69.8262 35.396H68.3378L68.3475 34.242H70.1281L70.5417 34.7031C71.033 34.683 71.4223 34.7514 71.7096 34.9091C71.9969 35.0669 72.2033 35.2737 72.328 35.5313C72.4526 35.7888 72.5149 36.0576 72.5149 36.3385C72.5149 36.8165 72.4113 37.2165 72.205 37.5376C71.9986 37.8588 71.6894 38.0994 71.279 38.2603C70.8687 38.4213 70.3612 38.501 69.7558 38.501H69.755Z" fill="#1D428A"/>
<path d="M76.6104 32.733L74.8193 38.5018H72.9172L75.6157 31.1982H76.8217L76.6096 32.733H76.6104ZM78.0228 35.7775V37.1368H74.2543V35.7775H78.0228ZM78.0932 38.501L76.2972 32.7321L76.0649 31.1974H77.2854L79.9992 38.501H78.0924H78.0932Z" fill="#1D428A"/>
</g>
<defs>
<clipPath id="clip0_197_146">
<rect width="80" height="52" fill="white"/>
</clipPath>
</defs>
</svg>
